<?xml version="1.0" encoding="UTF-8" standalone="no" ?>
<!DOCTYPE svg PUBLIC "-//W3C//DTD SVG 1.1//EN" "http://www.w3.org/Graphics/SVG/1.1/DTD/svg11.dtd">
<svg xmlns="http://www.w3.org/2000/svg" xmlns:xlink="http://www.w3.org/1999/xlink" version="1.1" width="500" height="500" viewBox="0 0 500 500" xml:space="preserve">
<desc>Created with Fabric.js 3.6.3</desc>
<defs>
</defs>
<rect x="0" y="0" width="100%" height="100%" fill="#000001"></rect>
<g transform="matrix(3.1365999999999996 0 0 3.1365999999999996 250 240.65999999999997)"  >
<g style=""   >
		<g transform="matrix(1 0 0 1 -23.703000000000003 -2.3840848641730794)"  >
<path style="stroke: none; stroke-width: 1; stroke-dasharray: none; stroke-linecap: butt; stroke-dashoffset: 0; stroke-linejoin: miter; stroke-miterlimit: 4; fill: rgb(255,255,255); fill-rule: nonzero; opacity: 1;"  transform=" translate(-25.796999999999997, -47.115915135826924)" d="M 23.545 51.412 c 6.389 -0.23 12.777 -0.461 19.166 -0.69 c -1.191 -1.97 -1.489 -3.692 -3.767 -3.989 c -3.408 -0.443 -6.816 -0.888 -10.225 -1.332 c -6.611 -0.861 -13.224 -1.723 -19.836 -2.584 C 9.476 43.773 18.728 51.585 23.545 51.412 z" stroke-linecap="round" />
</g>
		<g transform="matrix(1 0 0 1 -29.4775 -11.251000000000005)"  >
<path style="stroke: none; stroke-width: 1; stroke-dasharray: none; stroke-linecap: butt; stroke-dashoffset: 0; stroke-linejoin: miter; stroke-miterlimit: 4; fill: rgb(255,255,255); fill-rule: nonzero; opacity: 1;"  transform=" translate(-20.0225, -38.248999999999995)" d="M 0 31.042 c 2.07 3.421 12.547 10.877 15.536 11.261 c 8.17 1.052 16.339 2.103 24.509 3.153 c -1.6 -2.644 -1.971 -4.408 -4.861 -5.167 c -4.198 -1.104 -8.397 -2.208 -12.596 -3.311 C 15.058 35 7.529 33.021 0 31.042 z" stroke-linecap="round" />
</g>
		<g transform="matrix(1 0 0 1 -18.767500000000005 5.394389139438154)"  >
<path style="stroke: none; stroke-width: 1; stroke-dasharray: none; stroke-linecap: butt; stroke-dashoffset: 0; stroke-linejoin: miter; stroke-miterlimit: 4; fill: rgb(255,255,255); fill-rule: nonzero; opacity: 1;"  transform=" translate(-30.732499999999995, -54.894389139438154)" d="M 29.752 57.642 c 4.909 -1.047 9.818 -2.094 14.729 -3.141 c -0.956 -1.577 -0.959 -2.526 -2.747 -2.446 c -2.903 0.129 -5.806 0.259 -8.708 0.388 c -5.348 0.238 -10.695 0.478 -16.042 0.716 C 17.584 53.803 25.901 58.462 29.752 57.642 z" stroke-linecap="round" />
</g>
		<g transform="matrix(1 0 0 1 -5.259141452046478 12.706156250000006)"  >
<path style="stroke: none; stroke-width: 1; stroke-dasharray: none; stroke-linecap: butt; stroke-dashoffset: 0; stroke-linejoin: miter; stroke-miterlimit: 4; fill: rgb(255,255,255); fill-rule: nonzero; opacity: 1;"  transform=" translate(-44.24085854795352, -62.20615625000001)" d="M 41.337 68.959 c 2.699 -1.754 3.424 -3.641 4.959 -6.51 c 1.722 -3.217 0.593 -3.697 -1.33 -6.881 c -0.196 -0.324 -2.754 0.109 -3.042 0.427 c -0.352 0.386 -0.117 2.571 -0.139 3.062 C 41.636 62.357 41.486 65.658 41.337 68.959 z" stroke-linecap="round" />
</g>
		<g transform="matrix(1 0 0 1 -12.018499999999996 11.893500000000003)"  >
<path style="stroke: none; stroke-width: 1; stroke-dasharray: none; stroke-linecap: butt; stroke-dashoffset: 0; stroke-linejoin: miter; stroke-miterlimit: 4; fill: rgb(255,255,255); fill-rule: nonzero; opacity: 1;"  transform=" translate(-37.481500000000004, -61.3935)" d="M 40.709 56.34 c -1.789 0.382 -4.057 0.091 -4.513 1.994 c -0.647 2.704 -1.295 5.409 -1.942 8.113 C 38.613 65.406 40.558 60.175 40.709 56.34 z" stroke-linecap="round" />
</g>
		<g transform="matrix(1 0 0 1 -17.335 11.207999999999998)"  >
<path style="stroke: none; stroke-width: 1; stroke-dasharray: none; stroke-linecap: butt; stroke-dashoffset: 0; stroke-linejoin: miter; stroke-miterlimit: 4; fill: rgb(255,255,255); fill-rule: nonzero; opacity: 1;"  transform=" translate(-32.165, -60.708)" d="M 35.201 57.601 c -4.313 0.921 -4.223 2.174 -6.072 6.214 C 32.062 63.536 34.798 60.345 35.201 57.601 z" stroke-linecap="round" />
</g>
		<g transform="matrix(1 0 0 1 24.701999999999998 -2.3850685817983894)"  >
<path style="stroke: none; stroke-width: 1; stroke-dasharray: none; stroke-linecap: butt; stroke-dashoffset: 0; stroke-linejoin: miter; stroke-miterlimit: 4; fill: rgb(255,255,255); fill-rule: nonzero; opacity: 1;"  transform=" translate(-74.202, -47.11493141820161)" d="M 91.116 42.816 c -6.612 0.861 -13.225 1.723 -19.837 2.584 c -3.408 0.444 -6.816 0.889 -10.225 1.332 c -2.276 0.297 -2.575 2.02 -3.766 3.989 c 6.389 0.229 12.777 0.46 19.166 0.69 C 81.271 51.585 90.523 43.773 91.116 42.816 z" stroke-linecap="round" />
</g>
		<g transform="matrix(1 0 0 1 30.47800000000001 -11.251)"  >
<path style="stroke: none; stroke-width: 1; stroke-dasharray: none; stroke-linecap: butt; stroke-dashoffset: 0; stroke-linejoin: miter; stroke-miterlimit: 4; fill: rgb(255,255,255); fill-rule: nonzero; opacity: 1;"  transform=" translate(-79.97800000000001, -38.249)" d="M 77.413 36.978 c -4.199 1.104 -8.397 2.208 -12.597 3.311 c -2.89 0.759 -3.262 2.523 -4.86 5.167 c 8.169 -1.051 16.339 -2.102 24.508 -3.153 c 2.989 -0.384 13.467 -7.84 15.536 -11.261 C 92.471 33.021 84.942 35 77.413 36.978 z" stroke-linecap="round" />
</g>
		<g transform="matrix(1 0 0 1 19.768499999999985 5.393500145572787)"  >
<path style="stroke: none; stroke-width: 1; stroke-dasharray: none; stroke-linecap: butt; stroke-dashoffset: 0; stroke-linejoin: miter; stroke-miterlimit: 4; fill: rgb(255,255,255); fill-rule: nonzero; opacity: 1;"  transform=" translate(-69.26849999999999, -54.89350014557279)" d="M 83.017 53.158 c -5.347 -0.238 -10.694 -0.478 -16.042 -0.716 c -2.903 -0.129 -5.806 -0.259 -8.709 -0.388 c -1.788 -0.08 -1.79 0.869 -2.746 2.446 c 4.909 1.047 9.818 2.094 14.729 3.141 C 74.098 58.462 82.415 53.803 83.017 53.158 z" stroke-linecap="round" />
</g>
		<g transform="matrix(1 0 0 1 6.259024532035152 12.707226494599482)"  >
<path style="stroke: none; stroke-width: 1; stroke-dasharray: none; stroke-linecap: butt; stroke-dashoffset: 0; stroke-linejoin: miter; stroke-miterlimit: 4; fill: rgb(255,255,255); fill-rule: nonzero; opacity: 1;"  transform=" translate(-55.759024532035156, -62.20722649459948)" d="M 58.215 59.058 c -0.022 -0.491 0.213 -2.677 -0.139 -3.062 c -0.289 -0.317 -2.846 -0.751 -3.042 -0.427 c -1.924 3.184 -3.052 3.664 -1.33 6.881 c 1.535 2.869 2.259 4.756 4.959 6.51 C 58.514 65.658 58.364 62.357 58.215 59.058 z" stroke-linecap="round" />
</g>
		<g transform="matrix(1 0 0 1 13.017999999999997 11.893500000000003)"  >
<path style="stroke: none; stroke-width: 1; stroke-dasharray: none; stroke-linecap: butt; stroke-dashoffset: 0; stroke-linejoin: miter; stroke-miterlimit: 4; fill: rgb(255,255,255); fill-rule: nonzero; opacity: 1;"  transform=" translate(-62.518, -61.3935)" d="M 65.745 66.447 c -0.647 -2.704 -1.295 -5.409 -1.942 -8.113 c -0.455 -1.903 -2.724 -1.612 -4.512 -1.994 C 59.441 60.175 61.387 65.406 65.745 66.447 z" stroke-linecap="round" />
</g>
		<g transform="matrix(1 0 0 1 18.334999999999994 11.207)"  >
<path style="stroke: none; stroke-width: 1; stroke-dasharray: none; stroke-linecap: butt; stroke-dashoffset: 0; stroke-linejoin: miter; stroke-miterlimit: 4; fill: rgb(255,255,255); fill-rule: nonzero; opacity: 1;"  transform=" translate(-67.835, -60.707)" d="M 70.871 63.814 c -1.851 -4.04 -1.76 -5.293 -6.072 -6.214 C 65.202 60.345 67.938 63.536 70.871 63.814 z" stroke-linecap="round" />
</g>
</g>
</g>
<g transform="matrix(1 0 0 1 250.00000000000003 140.17215999869612)" style=""  ><path fill="#ffffff" opacity="1" d="M-60.63 28.70L-60.63 28.70Q-67.23 28.70-71.68 26.15Q-76.12 23.60-79.11 18.32L-79.11 18.32L-70.31 11.80Q-68.73 14.71-66.62 16.12Q-64.50 17.52-62.30 17.52L-62.30 17.52Q-58.78 17.52-56.98 15.37Q-55.18 13.21-55.18 7.49L-55.18 7.49L-55.18-29.73L-42.24-29.73L-42.24 8.55Q-42.24 12.68-43.34 16.38Q-44.44 20.08-46.68 22.80Q-48.93 25.53-52.40 27.12Q-55.88 28.70-60.63 28.70Z"/><path fill="#ffffff" opacity="1" d="M-0.09 28.70L-0.09 28.70Q-5.72 28.70-11.31 26.63Q-16.90 24.56-21.30 20.43L-21.30 20.43L-13.90 11.54Q-10.82 14.18-7.08 15.85Q-3.34 17.52 0.26 17.52L0.26 17.52Q4.31 17.52 6.29 16.03Q8.27 14.53 8.27 11.98L8.27 11.98Q8.27 10.66 7.70 9.69Q7.13 8.72 6.03 7.98Q4.93 7.23 3.39 6.57Q1.85 5.91 0.00 5.12L0.00 5.12L-7.48 1.95Q-9.68 1.07-11.75-0.34Q-13.82-1.75-15.44-3.64Q-17.07-5.53-18.04-8.04Q-19.01-10.55-19.01-13.72L-19.01-13.72Q-19.01-17.24-17.51-20.36Q-16.02-23.48-13.29-25.82Q-10.56-28.15-6.82-29.47Q-3.08-30.79 1.41-30.79L1.41-30.79Q6.42-30.79 11.31-28.85Q16.19-26.92 19.89-23.22L19.89-23.22L13.29-15.04Q10.47-17.24 7.66-18.42Q4.84-19.61 1.41-19.61L1.41-19.61Q-1.94-19.61-3.92-18.25Q-5.90-16.88-5.90-14.42L-5.90-14.42Q-5.90-13.10-5.24-12.18Q-4.58-11.25-3.39-10.50Q-2.20-9.76-0.62-9.10Q0.97-8.44 2.82-7.64L2.82-7.64L10.21-4.65Q15.49-2.54 18.52 1.16Q21.56 4.85 21.56 10.92L21.56 10.92Q21.56 14.53 20.11 17.74Q18.66 20.96 15.88 23.38Q13.11 25.80 9.06 27.25Q5.02 28.70-0.09 28.70Z"/><path fill="#ffffff" opacity="1" d="M63.89 27.64L50.95 27.64L50.95 7.23L33.62-29.73L47.52-29.73L52.62-16.53Q53.86-13.28 54.96-10.24Q56.06-7.20 57.29-3.86L57.29-3.86L57.64-3.86Q58.87-7.20 60.06-10.24Q61.25-13.28 62.48-16.53L62.48-16.53L67.67-29.73L81.22-29.73L63.89 7.23L63.89 27.64Z"/></g><g transform="matrix(1 0 0 1 250.00000000000003 203.24628769218378)" style=""  ><path fill="#ffffff" opacity="1" d="M-9.05-1.67L-9.05-1.67Q-10.25-1.67-11.09-2.51Q-11.93-3.35-11.93-4.65L-11.93-4.65Q-11.93-6.04-11.09-6.88Q-10.25-7.72-9.05-7.72L-9.05-7.72Q-7.90-7.72-7.06-6.88Q-6.22-6.04-6.22-4.65L-6.22-4.65Q-6.22-3.35-7.06-2.51Q-7.90-1.67-9.05-1.67ZM-9.05 15.65L-9.05 15.65Q-10.25 15.65-11.09 14.81Q-11.93 13.97-11.93 12.68L-11.93 12.68Q-11.93 11.29-11.09 10.45Q-10.25 9.61-9.05 9.61L-9.05 9.61Q-7.90 9.61-7.06 10.45Q-6.22 11.29-6.22 12.68L-6.22 12.68Q-6.22 13.97-7.06 14.81Q-7.90 15.65-9.05 15.65Z"/><path fill="#ffffff" opacity="1" d="M9.10-1.67L9.10-1.67Q7.90-1.67 7.06-2.51Q6.22-3.35 6.22-4.65L6.22-4.65Q6.22-6.04 7.06-6.88Q7.90-7.72 9.10-7.72L9.10-7.72Q10.25-7.72 11.09-6.88Q11.93-6.04 11.93-4.65L11.93-4.65Q11.93-3.35 11.09-2.51Q10.25-1.67 9.10-1.67ZM9.10 15.65L9.10 15.65Q7.90 15.65 7.06 14.81Q6.22 13.97 6.22 12.68L6.22 12.68Q6.22 11.29 7.06 10.45Q7.90 9.61 9.10 9.61L9.10 9.61Q10.25 9.61 11.09 10.45Q11.93 11.29 11.93 12.68L11.93 12.68Q11.93 13.97 11.09 14.81Q10.25 15.65 9.10 15.65Z"/></g><g transform="matrix(1 0 0 1 250 323.2462876921838)" style=""  ><path fill="#ffffff" opacity="1" d="M-0.98 22.52L-0.98 22.52Q-4.54 22.52-7.61 21.41Q-10.68 20.31-12.96 18.13Q-15.24 15.94-16.56 12.73Q-17.88 9.51-17.88 5.33L-17.88 5.33Q-17.88 0.53-16.27-3.40Q-14.66-7.34-11.90-10.12Q-9.14-12.91-5.52-14.42Q-1.90-15.93 2.14-15.93L2.14-15.93Q5.78-15.93 8.69-14.78Q11.59-13.63 13.63-11.54Q15.67-9.45 16.78-6.52Q17.88-3.59 17.88-0.04L17.88-0.04Q17.88 3.13 16.99 5.50Q16.10 7.88 14.71 9.49Q13.32 11.09 11.62 11.91Q9.91 12.73 8.28 12.73L8.28 12.73Q6.31 12.73 4.94 11.81Q3.58 10.90 3.34 9.08L3.34 9.08L3.24 9.08Q2.04 10.47 0.50 11.41Q-1.03 12.34-2.62 12.34L-2.62 12.34Q-5.06 12.34-6.72 10.61Q-8.38 8.89-8.38 5.57L-8.38 5.57Q-8.38 3.65-7.73 1.66Q-7.08-0.33-5.88-1.94Q-4.68-3.55-2.98-4.55Q-1.27-5.56 0.84-5.56L0.84-5.56Q2.09-5.56 3.05-5.01Q4.01-4.46 4.68-3.26L4.68-3.26L4.78-3.26L5.30-5.18L7.94-5.18L6.07 4.42Q4.63 10.04 8.66 10.04L8.66 10.04Q9.82 10.04 10.94 9.37Q12.07 8.69 13.01 7.42Q13.94 6.15 14.52 4.30Q15.10 2.45 15.10 0.10L15.10 0.10Q15.10-2.78 14.26-5.25Q13.42-7.72 11.74-9.50Q10.06-11.27 7.56-12.28Q5.06-13.29 1.80-13.29L1.80-13.29Q-1.42-13.29-4.44-11.97Q-7.46-10.65-9.82-8.25Q-12.17-5.85-13.58-2.44Q-15.00 0.97-15.00 5.19L-15.00 5.19Q-15.00 8.69-13.92 11.43Q-12.84 14.17-10.92 16.04Q-9.00 17.91-6.38 18.89Q-3.77 19.88-0.70 19.88L-0.70 19.88Q1.51 19.88 3.48 19.28Q5.45 18.68 7.08 17.72L7.08 17.72L8.14 20.07Q4.06 22.52-0.98 22.52ZM-1.85 9.65L-1.85 9.65Q-0.84 9.65 0.24 8.98Q1.32 8.31 2.57 6.82L2.57 6.82L3.96-0.81Q3.29-1.91 2.57-2.37Q1.85-2.83 0.89-2.83L0.89-2.83Q-0.55-2.83-1.68-2.06Q-2.81-1.29-3.60-0.09Q-4.39 1.11-4.80 2.55Q-5.21 3.99-5.21 5.33L-5.21 5.33Q-5.21 7.64-4.25 8.65Q-3.29 9.65-1.85 9.65Z"/></g></svg>